<svg xmlns="http://www.w3.org/2000/svg" xmlns:xlink="http://www.w3.org/1999/xlink" width="1080" zoomAndPan="magnify" viewBox="0 0 810 809.999993" height="1080" preserveAspectRatio="xMidYMid meet" version="1.0"><defs><clipPath id="f678e49053"><path d="M 38.25 0 L 771.75 0 C 781.894531 0 791.625 4.03125 798.796875 11.203125 C 805.96875 18.375 810 28.105469 810 38.25 L 810 771.75 C 810 781.894531 805.96875 791.625 798.796875 798.796875 C 791.625 805.96875 781.894531 810 771.75 810 L 38.25 810 C 28.105469 810 18.375 805.96875 11.203125 798.796875 C 4.03125 791.625 0 781.894531 0 771.75 L 0 38.25 C 0 28.105469 4.03125 18.375 11.203125 11.203125 C 18.375 4.03125 28.105469 0 38.25 0 Z M 38.25 0 " clip-rule="nonzero"/></clipPath><clipPath id="7130661987"><path d="M 133 133 L 677.625 133 L 677.625 677.625 L 133 677.625 Z M 133 133 " clip-rule="nonzero"/></clipPath></defs><g clip-path="url(#f678e49053)"><rect x="-81" width="972" fill="#e8effe" y="-80.999999" height="971.999992" fill-opacity="1"/></g><g clip-path="url(#7130661987)"><path fill="#1d63ef" d="M 674.933594 666.832031 C 657.007812 655.183594 640.203125 642.375 622.402344 628.808594 C 584.816406 600.167969 545.960938 570.558594 496.757812 553.453125 C 481.40625 548.113281 451.925781 541.570312 430.210938 537.078125 C 487.976562 518.890625 537.207031 473.996094 568.082031 445.804688 C 573.5 440.855469 578.351562 436.425781 582.578125 432.757812 C 593.210938 423.527344 601.5625 414.898438 608.09375 406.695312 C 618.046875 412.769531 643.566406 428.257812 668.8125 442.683594 C 669.734375 443.214844 670.742188 443.464844 671.746094 443.464844 C 673.789062 443.464844 675.789062 442.398438 676.886719 440.484375 C 678.503906 437.648438 677.519531 434.039062 674.679688 432.417969 C 650.195312 418.425781 625.425781 403.417969 615.03125 397.070312 C 625.796875 379.890625 627.003906 364.785156 618.777344 350.941406 C 612.976562 341.164062 607.175781 335.695312 602.519531 332.558594 C 611.128906 322 611.214844 309.585938 602.605469 294.851562 C 598.375 287.609375 592.988281 280.136719 585.960938 275.992188 C 589.734375 270.132812 591.289062 261.75 590.027344 252.289062 C 588.386719 240.039062 581.722656 224.636719 567.910156 218.148438 C 566 217.25 563.761719 216.734375 561.386719 216.386719 C 565.261719 207.472656 566.886719 194.792969 558.957031 180.851562 C 543.242188 153.214844 505.144531 158.578125 478.1875 165.363281 C 471.09375 157.054688 451.128906 135.378906 434.457031 133.71875 C 423.453125 132.621094 410.550781 141.085938 404.753906 145.410156 C 383.25 134.359375 364.714844 136.976562 357.65625 138.6875 C 346.789062 141.324219 336.253906 149.285156 325.085938 157.703125 C 313.859375 166.1875 302.226562 174.960938 291.714844 176.578125 C 283.007812 177.917969 276.804688 181.597656 273.269531 187.507812 C 271.121094 191.117188 270.394531 194.90625 270.28125 198.226562 C 261.078125 196.6875 246.742188 196.800781 235.210938 208.324219 C 226.296875 217.246094 216.351562 232.648438 217.703125 246.699219 C 218.023438 250.039062 219.046875 253.089844 220.582031 255.871094 C 213.617188 258.238281 207.652344 262.460938 203.296875 269.160156 C 193.480469 284.242188 189.96875 295.839844 192.257812 305.65625 C 193.53125 311.175781 196.636719 315.953125 201.5625 320.164062 C 201.078125 320.589844 200.4375 320.875 200.007812 321.347656 C 191.65625 330.578125 187.417969 344.738281 189.679688 355.792969 C 190.304688 358.859375 191.53125 361.542969 193.085938 363.949219 C 177.441406 376.628906 176.8125 397.3125 179.539062 410.214844 L 136.203125 438.78125 C 133.476562 440.578125 132.726562 444.246094 134.527344 446.976562 C 135.660156 448.699219 137.542969 449.632812 139.460938 449.632812 C 140.582031 449.632812 141.710938 449.316406 142.71875 448.65625 L 188.3125 418.601562 C 189.363281 418.1875 190.296875 417.558594 190.929688 416.460938 C 190.984375 416.417969 195.605469 412.25 214.734375 416.339844 C 227.578125 419.066406 238.320312 417.367188 246.738281 411.308594 C 254.582031 405.660156 258.414062 397.519531 260.289062 391.679688 C 266.472656 393.675781 272.140625 394.625 277.023438 394.625 C 283.585938 394.625 288.851562 393.128906 292.480469 390.953125 C 297.121094 388.167969 311.226562 372.539062 310.058594 356.578125 C 309.875 354.144531 309.277344 351.378906 307.976562 348.574219 C 313.914062 347.222656 320.84375 343.824219 325.753906 335.578125 C 334.554688 320.8125 333.667969 307.242188 323.425781 294.484375 C 341.613281 286 345.019531 264.902344 344.027344 254.191406 C 343.714844 250.9375 340.734375 248.558594 337.59375 248.847656 C 334.335938 249.152344 331.945312 252.03125 332.246094 255.285156 C 332.269531 255.523438 334.234375 279.058594 315.960938 284.984375 C 315.484375 285.136719 315.117188 285.433594 314.710938 285.683594 C 311.109375 282.65625 307.144531 279.652344 302.390625 276.707031 C 281.09375 263.527344 255.050781 252.878906 233.980469 253.53125 C 231.425781 251.386719 229.789062 248.84375 229.472656 245.574219 C 228.582031 236.304688 236.160156 224.101562 243.574219 216.6875 C 253.578125 206.691406 267.144531 209.253906 272.585938 210.824219 C 276.789062 223.105469 289.5625 241.945312 315.070312 242.429688 C 315.429688 242.4375 315.777344 242.441406 316.121094 242.441406 C 331.195312 242.4375 342.5625 236.308594 352.609375 230.894531 C 364.839844 224.273438 372.246094 220.761719 381.75 225.359375 C 383.714844 226.308594 386.082031 226.085938 387.828125 224.789062 C 388.300781 224.4375 435.367188 189.824219 465.988281 180.972656 C 501.414062 170.722656 535.960938 164.3125 548.675781 186.695312 C 556.988281 201.308594 550.796875 212.445312 547.839844 216.496094 C 525.101562 219.441406 496.40625 233.113281 492.21875 235.15625 C 489.285156 236.585938 488.070312 240.128906 489.503906 243.0625 C 490.949219 246.007812 494.472656 247.214844 497.417969 245.78125 C 511.617188 238.855469 534.230469 230.066406 549.71875 228.058594 C 550.785156 228.246094 551.875 228.226562 552.890625 227.828125 C 556.941406 227.554688 560.496094 227.734375 562.871094 228.855469 C 572.390625 233.324219 577.136719 245.117188 578.304688 253.855469 C 579.332031 261.59375 577.875 268.621094 574.664062 271.347656 C 574.15625 271.78125 573.804688 272.3125 573.480469 272.855469 C 571.121094 272.988281 568.664062 273.382812 566.015625 274.339844 C 553.574219 278.773438 526.417969 293.460938 525.265625 294.085938 C 522.398438 295.636719 521.324219 299.222656 522.886719 302.101562 C 524.433594 304.988281 528.035156 306.023438 530.902344 304.480469 C 531.179688 304.335938 558.402344 289.613281 569.988281 285.472656 C 577.019531 282.949219 582.933594 284.652344 592.394531 300.824219 C 600.328125 314.402344 598.769531 322.660156 586.644531 331.300781 C 573.960938 340.339844 540.8125 359.332031 540.476562 359.523438 C 537.632812 361.144531 536.652344 364.761719 538.28125 367.597656 C 539.367188 369.503906 541.367188 370.570312 543.410156 370.570312 C 544.414062 370.570312 545.417969 370.324219 546.34375 369.792969 C 547.730469 369 580.335938 350.3125 593.503906 340.933594 C 596.429688 342.34375 602.246094 346.253906 608.609375 356.976562 C 615.460938 368.503906 617.804688 386.523438 574.816406 423.828125 C 570.53125 427.546875 565.609375 432.042969 560.101562 437.066406 C 526.050781 468.160156 469.070312 520.195312 404.597656 531.230469 C 403.695312 531.386719 402.800781 531.652344 401.902344 531.824219 C 401.523438 531.871094 401.171875 531.945312 400.8125 532.0625 C 364.464844 539.261719 328.953125 560.089844 288.042969 584.230469 C 245.238281 609.496094 196.714844 638.128906 137.785156 655.574219 C 134.65625 656.503906 132.863281 659.792969 133.789062 662.925781 C 134.550781 665.496094 136.90625 667.160156 139.460938 667.160156 C 140.015625 667.160156 140.582031 667.085938 141.132812 666.917969 C 201.460938 649.0625 250.65625 620.027344 294.050781 594.417969 C 333.957031 570.867188 368.601562 550.550781 402.917969 543.699219 C 412.324219 545.496094 470.085938 556.699219 492.875 564.621094 C 540.292969 581.109375 578.382812 610.140625 615.230469 638.214844 C 632.417969 651.3125 650.191406 664.855469 668.488281 676.753906 C 669.480469 677.398438 670.601562 677.707031 671.710938 677.707031 C 673.640625 677.707031 675.535156 676.757812 676.667969 675.015625 C 678.445312 672.277344 677.671875 668.617188 674.933594 666.832031 Z M 239.75 401.761719 C 234.160156 405.746094 226.550781 406.757812 217.207031 404.765625 C 204.339844 402.035156 195.941406 402.414062 190.5 403.871094 C 189.417969 395.03125 189.957031 380.3125 202.171875 371.851562 C 202.464844 371.96875 202.761719 372.085938 203.066406 372.160156 C 203.351562 372.226562 231.828125 378.863281 249.304688 387.242188 C 248.089844 391.378906 245.40625 397.726562 239.75 401.761719 Z M 286.402344 380.804688 C 282.5 383.148438 271.527344 384.980469 255.308594 376.992188 C 237.984375 368.472656 211.070312 361.894531 206.394531 360.789062 C 203.667969 359.367188 201.980469 356.953125 201.265625 353.417969 C 199.753906 346.0625 202.988281 335.6875 208.785156 329.285156 C 211.292969 326.496094 224.480469 319.414062 287.546875 345.628906 C 297.574219 349.792969 298.070312 355.394531 298.242188 357.230469 C 299.097656 366.800781 289.210938 378.992188 286.402344 380.804688 Z M 296.152344 286.765625 C 328.976562 307.085938 319.933594 322.238281 315.589844 329.519531 C 309.78125 339.269531 298.75 337.503906 298.300781 337.433594 L 298.210938 337.9375 C 296.414062 336.785156 294.453125 335.679688 292.097656 334.703125 C 254.6875 319.160156 229.179688 312.769531 213.621094 315.058594 L 213.925781 314.546875 C 208.011719 311.011719 204.789062 307.339844 203.773438 302.984375 C 202.292969 296.601562 205.378906 287.644531 213.210938 275.605469 C 226.007812 255.929688 265.175781 267.582031 296.152344 286.765625 Z M 383.53125 213.289062 C 369.691406 208.265625 358.132812 214.457031 346.996094 220.480469 C 337.535156 225.578125 327.1875 230.75 315.300781 230.605469 C 289.707031 230.117188 283.296875 205.757812 282.859375 204.152344 C 282.835938 204.089844 280.824219 197.941406 283.433594 193.566406 C 285.0625 190.832031 288.460938 189.046875 293.519531 188.265625 C 306.976562 186.199219 319.808594 176.511719 332.210938 167.144531 C 342.375 159.484375 351.964844 152.242188 360.453125 150.179688 C 363.339844 149.480469 367.371094 148.808594 372.257812 148.808594 C 386.824219 148.808594 408.929688 154.765625 430.585938 183.578125 C 409.992188 194.675781 390.585938 208.230469 383.53125 213.289062 Z M 441.15625 178.164062 C 440.992188 177.820312 440.796875 177.484375 440.554688 177.160156 C 432.351562 166.109375 423.945312 158.058594 415.742188 152.144531 C 421.445312 148.457031 428.460938 145.054688 433.289062 145.488281 C 442.175781 146.375 455.800781 158.378906 465.429688 168.828125 C 464.515625 169.089844 463.558594 169.359375 462.707031 169.605469 C 455.960938 171.558594 448.617188 174.578125 441.15625 178.164062 Z M 441.15625 178.164062 " fill-opacity="1" fill-rule="nonzero"/></g></svg>
