<svg xmlns="http://www.w3.org/2000/svg" xmlns:xlink="http://www.w3.org/1999/xlink" width="1080" zoomAndPan="magnify" viewBox="0 0 810 809.999993" height="1080" preserveAspectRatio="xMidYMid meet" version="1.0"><defs><clipPath id="bb5c6cf2b6"><path d="M 38.25 0 L 771.75 0 C 781.894531 0 791.625 4.03125 798.796875 11.203125 C 805.96875 18.375 810 28.105469 810 38.25 L 810 771.75 C 810 781.894531 805.96875 791.625 798.796875 798.796875 C 791.625 805.96875 781.894531 810 771.75 810 L 38.25 810 C 28.105469 810 18.375 805.96875 11.203125 798.796875 C 4.03125 791.625 0 781.894531 0 771.75 L 0 38.25 C 0 28.105469 4.03125 18.375 11.203125 11.203125 C 18.375 4.03125 28.105469 0 38.25 0 Z M 38.25 0 " clip-rule="nonzero"/></clipPath><clipPath id="82112b5dd9"><path d="M 135 180.085938 L 567 180.085938 L 567 592 L 135 592 Z M 135 180.085938 " clip-rule="nonzero"/></clipPath></defs><g clip-path="url(#bb5c6cf2b6)"><rect x="-81" width="972" fill="#fef0c5" y="-80.999999" height="971.999992" fill-opacity="1"/></g><g clip-path="url(#82112b5dd9)"><path fill="#f8bb1a" d="M 566.507812 214.777344 L 548.5625 214.777344 L 548.5625 205.992188 C 548.5625 200.945312 544.449219 196.832031 539.402344 196.832031 L 162.929688 196.832031 C 157.789062 196.832031 153.769531 200.945312 153.769531 205.992188 L 153.769531 430.121094 L 369.109375 430.121094 L 369.109375 448.066406 L 153.769531 448.066406 L 153.769531 492.742188 C 153.769531 497.789062 157.878906 501.898438 162.929688 501.898438 L 369.109375 501.898438 L 369.109375 519.84375 L 329.480469 519.84375 L 316.023438 573.679688 L 369.109375 573.679688 L 369.109375 591.625 L 270.410156 591.625 C 265.363281 591.625 261.4375 587.605469 261.4375 582.652344 C 261.4375 577.886719 265.457031 573.679688 270.503906 573.679688 L 293.777344 573.679688 C 295.832031 573.679688 297.703125 572.089844 298.171875 570.222656 L 310.789062 519.84375 L 162.929688 519.84375 C 147.972656 519.84375 135.824219 507.695312 135.824219 493.019531 L 135.824219 205.710938 C 135.824219 190.851562 147.785156 178.886719 162.929688 178.886719 L 539.402344 178.886719 C 554.355469 178.886719 566.507812 191.039062 566.507812 205.710938 Z M 351.164062 492.925781 C 341.257812 492.925781 333.21875 484.890625 333.21875 474.984375 C 333.21875 465.074219 341.257812 457.039062 351.164062 457.039062 C 361.070312 457.039062 369.109375 465.074219 369.109375 474.984375 C 369.109375 484.890625 361.070312 492.925781 351.164062 492.925781 Z M 351.164062 492.925781 " fill-opacity="1" fill-rule="evenodd"/></g><path fill="#f8bb1a" d="M 638.285156 304.503906 L 620.339844 304.503906 L 620.339844 286.558594 L 405 286.558594 L 405 519.84375 L 476.78125 519.84375 L 476.78125 537.789062 L 405 537.789062 L 405 582.746094 C 405 587.605469 409.019531 591.625 413.972656 591.625 L 476.78125 591.625 L 476.78125 609.570312 L 414.066406 609.570312 C 399.113281 609.570312 387.054688 597.605469 387.054688 582.558594 L 387.054688 259.734375 C 387.054688 244.78125 399.019531 232.722656 414.066406 232.722656 L 611.273438 232.722656 C 626.230469 232.722656 638.285156 244.6875 638.285156 259.734375 Z M 405 259.546875 L 405 268.613281 L 620.339844 268.613281 L 620.339844 259.546875 C 620.339844 254.6875 616.324219 250.667969 611.367188 250.667969 L 413.972656 250.667969 C 408.925781 250.667969 405 254.6875 405 259.546875 Z M 405 259.546875 " fill-opacity="1" fill-rule="evenodd"/><path fill="#f8bb1a" d="M 521.738281 322.449219 L 647.164062 322.449219 C 662.121094 322.449219 674.175781 334.414062 674.175781 349.460938 L 674.175781 600.503906 C 674.175781 615.460938 662.214844 627.515625 647.164062 627.515625 L 521.738281 627.515625 C 506.78125 627.515625 494.726562 615.550781 494.726562 600.503906 L 494.726562 349.460938 C 494.726562 334.503906 506.6875 322.449219 521.738281 322.449219 Z M 512.671875 537.789062 L 656.230469 537.789062 L 656.230469 376.285156 L 512.671875 376.285156 Z M 512.671875 349.273438 L 512.671875 358.339844 L 656.230469 358.339844 L 656.230469 349.273438 C 656.230469 344.414062 652.210938 340.394531 647.257812 340.394531 L 521.644531 340.394531 C 516.597656 340.394531 512.671875 344.414062 512.671875 349.273438 Z M 512.671875 600.691406 C 512.671875 605.550781 516.691406 609.570312 521.644531 609.570312 L 647.257812 609.570312 C 652.304688 609.570312 656.230469 605.550781 656.230469 600.691406 L 656.230469 555.734375 L 512.671875 555.734375 Z M 512.671875 600.691406 " fill-opacity="1" fill-rule="evenodd"/><path fill="#f8bb1a" d="M 602.394531 582.652344 C 602.394531 592.558594 594.359375 600.597656 584.449219 600.597656 C 574.542969 600.597656 566.507812 592.558594 566.507812 582.652344 C 566.507812 572.746094 574.542969 564.707031 584.449219 564.707031 C 594.359375 564.707031 602.394531 572.746094 602.394531 582.652344 Z M 602.394531 582.652344 " fill-opacity="1" fill-rule="evenodd"/></svg>