<svg xmlns="http://www.w3.org/2000/svg" xmlns:xlink="http://www.w3.org/1999/xlink" width="1080" zoomAndPan="magnify" viewBox="0 0 810 809.999993" height="1080" preserveAspectRatio="xMidYMid meet" version="1.0"><defs><clipPath id="6d3de26078"><path d="M 38.25 0 L 771.75 0 C 781.894531 0 791.625 4.03125 798.796875 11.203125 C 805.96875 18.375 810 28.105469 810 38.25 L 810 771.75 C 810 781.894531 805.96875 791.625 798.796875 798.796875 C 791.625 805.96875 781.894531 810 771.75 810 L 38.25 810 C 28.105469 810 18.375 805.96875 11.203125 798.796875 C 4.03125 791.625 0 781.894531 0 771.75 L 0 38.25 C 0 28.105469 4.03125 18.375 11.203125 11.203125 C 18.375 4.03125 28.105469 0 38.25 0 Z M 38.25 0 " clip-rule="nonzero"/></clipPath><clipPath id="33acc68204"><path d="M 153 105.710938 L 657 105.710938 L 657 704.210938 L 153 704.210938 Z M 153 105.710938 " clip-rule="nonzero"/></clipPath><clipPath id="a53e0b0c4e"><path d="M 132.375 105.710938 L 677.625 105.710938 L 677.625 704.210938 L 132.375 704.210938 Z M 132.375 105.710938 " clip-rule="nonzero"/></clipPath></defs><g clip-path="url(#6d3de26078)"><rect x="-81" width="972" fill="#e8effe" y="-80.999999" height="971.999992" fill-opacity="1"/></g><g clip-path="url(#33acc68204)"><path fill="#1d63ef" d="M 655.628906 260.164062 C 418.378906 227.476562 405 105.867188 405 105.867188 C 405 105.867188 391.621094 227.476562 154.371094 260.164062 C 154.371094 260.164062 132.441406 622.683594 405 704.4375 C 677.558594 622.683594 655.628906 260.164062 655.628906 260.164062 " fill-opacity="1" fill-rule="nonzero"/></g><path fill="#1d63ef" d="M 617.671875 292.699219 C 526.953125 275.910156 458.453125 243.820312 413.773438 197.121094 C 410.648438 193.871094 407.714844 190.621094 405 187.402344 C 402.253906 190.621094 399.351562 193.871094 396.226562 197.121094 C 351.546875 243.820312 283.046875 275.910156 192.328125 292.699219 C 193.148438 326.082031 197.441406 383.097656 214.730469 443.144531 C 247.800781 558.0625 311.757812 632.433594 405 664.367188 C 498.210938 632.433594 562.199219 558.0625 595.269531 443.144531 C 612.527344 383.097656 616.820312 326.113281 617.671875 292.695312 " fill-opacity="1" fill-rule="nonzero"/><g clip-path="url(#a53e0b0c4e)"><path stroke-linecap="butt" transform="matrix(0.315535, 0, 0, -0.315535, -265.827874, 1075.981838)" fill="none" stroke-linejoin="miter" d="M 2800.003801 2482.393814 C 2512.496255 2535.602023 2295.404783 2637.301751 2153.805089 2785.301782 C 2143.901281 2795.601743 2134.604081 2805.901703 2126.000148 2816.102625 C 2117.297176 2805.901703 2108.099015 2795.601743 2098.195207 2785.301782 C 1956.595512 2637.301751 1739.50404 2535.602023 1451.996494 2482.393814 C 1454.596244 2376.596386 1468.2016 2195.901409 1522.994418 2005.599738 C 1627.801466 1641.399578 1830.495276 1405.701328 2126.000148 1304.49679 C 2421.405981 1405.701328 2624.198829 1641.399578 2729.005877 2005.599738 C 2783.699657 2195.901409 2797.305013 2376.497347 2800.003801 2482.393814 Z M 2800.003801 2482.393814 " stroke="#3abdc4" stroke-width="80" stroke-opacity="1" stroke-miterlimit="10"/><path stroke-linecap="butt" transform="matrix(0.315535, 0, 0, -0.315535, -265.827874, 1075.981838)" fill="none" stroke-linejoin="miter" d="M 1793.405515 2027.004343 L 2009.494226 1833.1992 L 2493.394285 2411.903461 " stroke="#3abdc4" stroke-width="129.570007" stroke-opacity="1" stroke-miterlimit="10"/></g></svg>