<svg xmlns="http://www.w3.org/2000/svg" xmlns:xlink="http://www.w3.org/1999/xlink" width="1080" zoomAndPan="magnify" viewBox="0 0 810 809.999993" height="1080" preserveAspectRatio="xMidYMid meet" version="1.0"><defs><clipPath id="2eee25115d"><path d="M 38.25 0 L 771.75 0 C 781.894531 0 791.625 4.03125 798.796875 11.203125 C 805.96875 18.375 810 28.105469 810 38.25 L 810 771.75 C 810 781.894531 805.96875 791.625 798.796875 798.796875 C 791.625 805.96875 781.894531 810 771.75 810 L 38.25 810 C 28.105469 810 18.375 805.96875 11.203125 798.796875 C 4.03125 791.625 0 781.894531 0 771.75 L 0 38.25 C 0 28.105469 4.03125 18.375 11.203125 11.203125 C 18.375 4.03125 28.105469 0 38.25 0 Z M 38.25 0 " clip-rule="nonzero"/></clipPath><clipPath id="735000a7ab"><path d="M 132.375 132.375 L 676 132.375 L 676 676 L 132.375 676 Z M 132.375 132.375 " clip-rule="nonzero"/></clipPath></defs><g clip-path="url(#2eee25115d)"><rect x="-81" width="972" fill="#fedbc7" y="-80.999999" height="971.999992" fill-opacity="1"/></g><g clip-path="url(#735000a7ab)"><path fill="#fe1143" d="M 549.03125 201.089844 C 542.960938 200.730469 538.328125 195.519531 538.683594 189.449219 C 539.042969 183.378906 544.253906 178.746094 550.324219 179.105469 L 619.4375 183.378906 C 625.507812 183.734375 630.140625 188.945312 629.785156 195.015625 C 629.761719 195.410156 629.714844 195.796875 629.652344 196.179688 L 618.097656 264.457031 C 617.097656 270.457031 611.425781 274.507812 605.425781 273.507812 C 599.425781 272.507812 595.371094 266.835938 596.371094 260.835938 L 603.398438 219.316406 L 456.65625 322.75 C 452.949219 325.359375 447.851562 325.492188 443.945312 322.710938 L 367.046875 268.125 L 262.832031 351.039062 C 258.070312 354.824219 251.144531 354.03125 247.359375 349.269531 C 243.574219 344.507812 244.363281 337.582031 249.125 333.796875 L 359.808594 245.734375 C 363.875 242.503906 369.519531 242.605469 373.4375 245.671875 L 450.339844 300.261719 L 587.640625 203.472656 Z M 317.988281 132.375 C 215.476562 132.375 132.375 215.476562 132.375 317.988281 C 132.375 420.5 215.476562 503.601562 317.988281 503.601562 C 359.890625 503.601562 398.546875 489.710938 429.609375 466.292969 L 474.109375 510.789062 C 468.851562 519.890625 470.101562 531.796875 477.867188 539.5625 L 606.667969 668.367188 C 615.929688 677.625 631.078125 677.625 640.335938 668.367188 L 668.367188 640.335938 C 677.625 631.078125 677.625 615.929688 668.367188 606.667969 L 539.5625 477.867188 C 531.796875 470.101562 519.890625 468.851562 510.789062 474.109375 L 466.292969 429.609375 C 489.710938 398.542969 503.601562 359.890625 503.601562 317.988281 C 503.601562 317.550781 503.585938 317.121094 503.585938 316.683594 C 484.480469 330.152344 465.371094 343.621094 446.265625 357.089844 C 429.53125 412.0625 378.4375 452.070312 317.988281 452.070312 C 243.9375 452.070312 183.910156 392.039062 183.910156 317.988281 C 183.910156 243.9375 243.9375 183.910156 317.988281 183.910156 C 374.144531 183.910156 422.226562 218.433594 442.191406 267.414062 L 450.382812 273.230469 L 489.097656 245.941406 C 460.96875 179.210938 394.949219 132.375 317.988281 132.375 Z M 317.988281 132.375 " fill-opacity="1" fill-rule="evenodd"/></g></svg>