<svg xmlns="http://www.w3.org/2000/svg" xmlns:xlink="http://www.w3.org/1999/xlink" width="1080" zoomAndPan="magnify" viewBox="0 0 810 809.999993" height="1080" preserveAspectRatio="xMidYMid meet" version="1.0"><defs><clipPath id="bbc5c78fc1"><path d="M 38.25 0 L 771.75 0 C 781.894531 0 791.625 4.03125 798.796875 11.203125 C 805.96875 18.375 810 28.105469 810 38.25 L 810 771.75 C 810 781.894531 805.96875 791.625 798.796875 798.796875 C 791.625 805.96875 781.894531 810 771.75 810 L 38.25 810 C 28.105469 810 18.375 805.96875 11.203125 798.796875 C 4.03125 791.625 0 781.894531 0 771.75 L 0 38.25 C 0 28.105469 4.03125 18.375 11.203125 11.203125 C 18.375 4.03125 28.105469 0 38.25 0 Z M 38.25 0 " clip-rule="nonzero"/></clipPath><clipPath id="6f225c695c"><path d="M 226.089844 132.375 L 533 132.375 L 533 677.625 L 226.089844 677.625 Z M 226.089844 132.375 " clip-rule="nonzero"/></clipPath><clipPath id="0ee110a181"><path d="M 498 268 L 583.839844 268 L 583.839844 354 L 498 354 Z M 498 268 " clip-rule="nonzero"/></clipPath></defs><g clip-path="url(#bbc5c78fc1)"><rect x="-81" width="972" fill="#fedbc7" y="-80.999999" height="971.999992" fill-opacity="1"/></g><path fill="#fe1143" d="M 345.363281 643.546875 L 413.519531 643.546875 C 418.222656 643.546875 422.039062 639.730469 422.039062 635.027344 C 422.039062 630.324219 418.222656 626.507812 413.519531 626.507812 L 345.363281 626.507812 C 340.660156 626.507812 336.84375 630.324219 336.84375 635.027344 C 336.84375 639.730469 340.660156 643.546875 345.363281 643.546875 Z M 345.363281 643.546875 " fill-opacity="1" fill-rule="nonzero"/><path fill="#fe1143" d="M 353.882812 174.972656 C 353.882812 175.53125 353.828125 176.085938 353.71875 176.632812 C 353.609375 177.183594 353.449219 177.714844 353.234375 178.234375 C 353.019531 178.75 352.757812 179.242188 352.445312 179.707031 C 352.136719 180.171875 351.78125 180.601562 351.386719 180.996094 C 350.992188 181.390625 350.5625 181.746094 350.097656 182.054688 C 349.632812 182.367188 349.140625 182.628906 348.625 182.84375 C 348.105469 183.058594 347.574219 183.21875 347.023438 183.328125 C 346.476562 183.4375 345.921875 183.492188 345.363281 183.492188 C 344.804688 183.492188 344.25 183.4375 343.699219 183.328125 C 343.152344 183.21875 342.621094 183.058594 342.101562 182.84375 C 341.585938 182.628906 341.09375 182.367188 340.628906 182.054688 C 340.164062 181.746094 339.734375 181.390625 339.339844 180.996094 C 338.945312 180.601562 338.589844 180.171875 338.28125 179.707031 C 337.96875 179.242188 337.707031 178.75 337.492188 178.234375 C 337.277344 177.714844 337.117188 177.183594 337.007812 176.632812 C 336.898438 176.085938 336.84375 175.53125 336.84375 174.972656 C 336.84375 174.414062 336.898438 173.859375 337.007812 173.3125 C 337.117188 172.761719 337.277344 172.230469 337.492188 171.710938 C 337.707031 171.195312 337.96875 170.703125 338.28125 170.238281 C 338.589844 169.773438 338.945312 169.34375 339.339844 168.949219 C 339.734375 168.554688 340.164062 168.199219 340.628906 167.890625 C 341.09375 167.578125 341.585938 167.316406 342.101562 167.101562 C 342.621094 166.886719 343.152344 166.726562 343.699219 166.617188 C 344.25 166.507812 344.804688 166.453125 345.363281 166.453125 C 345.921875 166.453125 346.476562 166.507812 347.023438 166.617188 C 347.574219 166.726562 348.105469 166.886719 348.625 167.101562 C 349.140625 167.316406 349.632812 167.578125 350.097656 167.890625 C 350.5625 168.199219 350.992188 168.554688 351.386719 168.949219 C 351.78125 169.34375 352.136719 169.773438 352.445312 170.238281 C 352.757812 170.703125 353.019531 171.195312 353.234375 171.710938 C 353.449219 172.230469 353.609375 172.761719 353.71875 173.3125 C 353.828125 173.859375 353.882812 174.414062 353.882812 174.972656 Z M 353.882812 174.972656 " fill-opacity="1" fill-rule="nonzero"/><path fill="#fe1143" d="M 387.960938 174.972656 C 387.960938 175.53125 387.90625 176.085938 387.796875 176.632812 C 387.6875 177.183594 387.527344 177.714844 387.3125 178.234375 C 387.097656 178.75 386.835938 179.242188 386.523438 179.707031 C 386.214844 180.171875 385.859375 180.601562 385.464844 180.996094 C 385.070312 181.390625 384.640625 181.746094 384.175781 182.054688 C 383.710938 182.367188 383.21875 182.628906 382.703125 182.84375 C 382.183594 183.058594 381.652344 183.21875 381.101562 183.328125 C 380.554688 183.4375 380 183.492188 379.441406 183.492188 C 378.882812 183.492188 378.328125 183.4375 377.777344 183.328125 C 377.230469 183.21875 376.699219 183.058594 376.179688 182.84375 C 375.664062 182.628906 375.171875 182.367188 374.707031 182.054688 C 374.242188 181.746094 373.8125 181.390625 373.417969 180.996094 C 373.023438 180.601562 372.667969 180.171875 372.359375 179.707031 C 372.046875 179.242188 371.785156 178.75 371.570312 178.234375 C 371.355469 177.714844 371.195312 177.183594 371.085938 176.632812 C 370.976562 176.085938 370.921875 175.53125 370.921875 174.972656 C 370.921875 174.414062 370.976562 173.859375 371.085938 173.3125 C 371.195312 172.761719 371.355469 172.230469 371.570312 171.710938 C 371.785156 171.195312 372.046875 170.703125 372.359375 170.238281 C 372.667969 169.773438 373.023438 169.34375 373.417969 168.949219 C 373.8125 168.554688 374.242188 168.199219 374.707031 167.890625 C 375.171875 167.578125 375.664062 167.316406 376.179688 167.101562 C 376.699219 166.886719 377.230469 166.726562 377.777344 166.617188 C 378.328125 166.507812 378.882812 166.453125 379.441406 166.453125 C 380 166.453125 380.554688 166.507812 381.101562 166.617188 C 381.652344 166.726562 382.183594 166.886719 382.703125 167.101562 C 383.21875 167.316406 383.710938 167.578125 384.175781 167.890625 C 384.640625 168.199219 385.070312 168.554688 385.464844 168.949219 C 385.859375 169.34375 386.214844 169.773438 386.523438 170.238281 C 386.835938 170.703125 387.097656 171.195312 387.3125 171.710938 C 387.527344 172.230469 387.6875 172.761719 387.796875 173.3125 C 387.90625 173.859375 387.960938 174.414062 387.960938 174.972656 Z M 387.960938 174.972656 " fill-opacity="1" fill-rule="nonzero"/><path fill="#fe1143" d="M 422.039062 174.972656 C 422.039062 175.53125 421.984375 176.085938 421.875 176.632812 C 421.765625 177.183594 421.605469 177.714844 421.390625 178.234375 C 421.175781 178.75 420.914062 179.242188 420.601562 179.707031 C 420.292969 180.171875 419.9375 180.601562 419.542969 180.996094 C 419.148438 181.390625 418.71875 181.746094 418.253906 182.054688 C 417.789062 182.367188 417.296875 182.628906 416.78125 182.84375 C 416.261719 183.058594 415.730469 183.21875 415.179688 183.328125 C 414.632812 183.4375 414.078125 183.492188 413.519531 183.492188 C 412.960938 183.492188 412.40625 183.4375 411.855469 183.328125 C 411.308594 183.21875 410.777344 183.058594 410.257812 182.84375 C 409.742188 182.628906 409.25 182.367188 408.785156 182.054688 C 408.320312 181.746094 407.890625 181.390625 407.496094 180.996094 C 407.101562 180.601562 406.746094 180.171875 406.4375 179.707031 C 406.125 179.242188 405.863281 178.75 405.648438 178.234375 C 405.433594 177.714844 405.273438 177.183594 405.164062 176.632812 C 405.054688 176.085938 405 175.53125 405 174.972656 C 405 174.414062 405.054688 173.859375 405.164062 173.3125 C 405.273438 172.761719 405.433594 172.230469 405.648438 171.710938 C 405.863281 171.195312 406.125 170.703125 406.4375 170.238281 C 406.746094 169.773438 407.101562 169.34375 407.496094 168.949219 C 407.890625 168.554688 408.320312 168.199219 408.785156 167.890625 C 409.25 167.578125 409.742188 167.316406 410.257812 167.101562 C 410.777344 166.886719 411.308594 166.726562 411.855469 166.617188 C 412.40625 166.507812 412.960938 166.453125 413.519531 166.453125 C 414.078125 166.453125 414.632812 166.507812 415.179688 166.617188 C 415.730469 166.726562 416.261719 166.886719 416.78125 167.101562 C 417.296875 167.316406 417.789062 167.578125 418.253906 167.890625 C 418.71875 168.199219 419.148438 168.554688 419.542969 168.949219 C 419.9375 169.34375 420.292969 169.773438 420.601562 170.238281 C 420.914062 170.703125 421.175781 171.195312 421.390625 171.710938 C 421.605469 172.230469 421.765625 172.761719 421.875 173.3125 C 421.984375 173.859375 422.039062 174.414062 422.039062 174.972656 Z M 422.039062 174.972656 " fill-opacity="1" fill-rule="nonzero"/><path fill="#fe1143" d="M 362.402344 541.3125 C 362.402344 560.132812 377.660156 575.390625 396.480469 575.390625 L 532.792969 575.390625 C 551.613281 575.390625 566.871094 560.132812 566.871094 541.3125 L 566.871094 405 C 566.871094 386.179688 551.613281 370.921875 532.792969 370.921875 L 396.480469 370.921875 C 377.660156 370.921875 362.402344 386.179688 362.402344 405 Z M 379.441406 405 C 379.441406 395.605469 387.082031 387.960938 396.480469 387.960938 L 532.792969 387.960938 C 542.191406 387.960938 549.832031 395.605469 549.832031 405 L 549.832031 541.3125 C 549.832031 550.710938 542.191406 558.351562 532.792969 558.351562 L 396.480469 558.351562 C 387.082031 558.351562 379.441406 550.710938 379.441406 541.3125 Z M 379.441406 405 " fill-opacity="1" fill-rule="nonzero"/><path fill="#fe1143" d="M 448.195312 353.882812 C 466.683594 353.882812 481.675781 338.890625 481.675781 320.402344 L 481.675781 268.089844 C 481.675781 249.597656 466.683594 234.609375 448.195312 234.609375 L 395.882812 234.609375 C 377.394531 234.609375 362.402344 249.597656 362.402344 268.089844 L 362.402344 320.402344 C 362.402344 338.890625 377.394531 353.882812 395.882812 353.882812 Z M 379.441406 320.402344 L 379.441406 268.089844 C 379.441406 259.023438 386.816406 251.648438 395.882812 251.648438 L 448.195312 251.648438 C 457.261719 251.648438 464.636719 259.023438 464.636719 268.089844 L 464.636719 320.402344 C 464.636719 329.46875 457.261719 336.84375 448.195312 336.84375 L 395.882812 336.84375 C 386.816406 336.84375 379.441406 329.46875 379.441406 320.402344 Z M 379.441406 320.402344 " fill-opacity="1" fill-rule="nonzero"/><g clip-path="url(#6f225c695c)"><path fill="#fe1143" d="M 259.871094 677.625 L 499.011719 677.625 C 517.667969 677.625 532.792969 662.367188 532.792969 643.546875 L 532.792969 592.429688 L 243.128906 592.429688 L 243.128906 217.570312 L 515.753906 217.570312 L 515.753906 252.273438 C 517.992188 251.890625 532.792969 251.648438 532.792969 251.648438 L 532.792969 166.453125 C 532.792969 147.632812 517.667969 132.375 499.011719 132.375 L 259.871094 132.375 C 241.210938 132.375 226.089844 147.632812 226.089844 166.453125 L 226.089844 643.546875 C 226.089844 662.367188 241.210938 677.625 259.871094 677.625 Z M 243.128906 166.453125 C 243.128906 157.058594 250.640625 149.414062 259.871094 149.414062 L 499.011719 149.414062 C 508.242188 149.414062 515.753906 157.058594 515.753906 166.453125 L 515.753906 200.53125 L 243.128906 200.53125 Z M 243.128906 609.46875 L 515.753906 609.46875 L 515.753906 643.546875 C 515.753906 652.945312 508.242188 660.585938 499.011719 660.585938 L 259.871094 660.585938 C 250.640625 660.585938 243.128906 652.945312 243.128906 643.546875 Z M 243.128906 609.46875 " fill-opacity="1" fill-rule="nonzero"/></g><g clip-path="url(#0ee110a181)"><path fill="#fe1143" d="M 498.714844 292.601562 L 498.714844 329.96875 C 498.714844 343.175781 509.421875 353.882812 522.625 353.882812 L 560 353.882812 C 573.203125 353.882812 583.910156 343.175781 583.910156 329.96875 L 583.910156 292.601562 C 583.910156 279.394531 573.203125 268.6875 560 268.6875 L 522.625 268.6875 C 509.421875 268.6875 498.714844 279.394531 498.714844 292.601562 Z M 566.871094 292.601562 L 566.871094 329.96875 C 566.871094 333.757812 563.789062 336.84375 560 336.84375 L 522.625 336.84375 C 518.835938 336.84375 515.753906 333.757812 515.753906 329.96875 L 515.753906 292.601562 C 515.753906 288.8125 518.835938 285.726562 522.625 285.726562 L 560 285.726562 C 563.789062 285.726562 566.871094 288.8125 566.871094 292.601562 Z M 566.871094 292.601562 " fill-opacity="1" fill-rule="nonzero"/></g><path fill="#fe1143" d="M 284.078125 370.921875 C 270.875 370.921875 260.167969 381.628906 260.167969 394.835938 L 260.167969 432.203125 C 260.167969 445.410156 270.875 456.117188 284.078125 456.117188 L 321.453125 456.117188 C 334.65625 456.117188 345.363281 445.410156 345.363281 432.203125 L 345.363281 394.835938 C 345.363281 381.628906 334.65625 370.921875 321.453125 370.921875 Z M 328.324219 394.835938 L 328.324219 432.203125 C 328.324219 435.992188 325.242188 439.078125 321.453125 439.078125 L 284.078125 439.078125 C 280.289062 439.078125 277.207031 435.992188 277.207031 432.203125 L 277.207031 394.835938 C 277.207031 391.046875 280.289062 387.960938 284.078125 387.960938 L 321.453125 387.960938 C 325.242188 387.960938 328.324219 391.046875 328.324219 394.835938 Z M 328.324219 394.835938 " fill-opacity="1" fill-rule="nonzero"/></svg>